<?xml version="1.0" encoding="iso-8859-1"?>
<svg version="1.0" xmlns="http://www.w3.org/2000/svg"
 width="24" height="24" viewBox="0 0 512.000000 512.000000"
 preserveAspectRatio="xMidYMid meet">
<g transform="translate(0.000000,512.000000) scale(0.100000,-0.100000)"
fill="#009688" stroke="none">
<path d="M361 5109 c-172 -34 -318 -182 -351 -358 -14 -74 -14 -4308 0 -4382
34 -180 179 -325 359 -359 74 -14 3088 -14 3162 0 180 34 325 179 359 359 6
31 10 231 10 477 l0 424 543 643 c298 353 557 661 576 685 113 144 130 322 46
488 -120 235 -415 312 -641 166 -46 -30 -108 -96 -289 -310 l-230 -272 -5 777
c-5 694 -7 782 -22 819 -25 64 -48 106 -80 145 -42 52 -622 599 -669 631 -23
15 -66 38 -97 50 l-57 23 -1285 2 c-707 0 -1305 -3 -1329 -8z m2339 -679 c0
-372 1 -393 20 -430 13 -26 34 -47 60 -60 37 -19 58 -20 430 -20 l390 0 0
-805 0 -806 -334 -395 c-207 -246 -344 -417 -360 -450 -30 -62 -176 -655 -176
-716 0 -84 59 -142 144 -142 43 0 96 20 350 131 164 72 315 143 335 157 l36
26 3 -250 c2 -235 1 -253 -18 -290 -13 -26 -34 -47 -60 -60 -39 -20 -56 -20
-1570 -20 -1514 0 -1531 0 -1570 20 -26 13 -47 34 -60 60 -20 39 -20 54 -20
2180 0 2125 0 2141 20 2180 12 24 35 47 58 59 36 20 62 20 1180 21 l1142 0 0
-390z m730 -79 l135 -130 -282 -1 -283 0 0 271 0 271 148 -140 c81 -77 208
-199 282 -271z m1305 -1341 c47 -23 85 -80 85 -129 0 -42 -22 -84 -82 -153
l-50 -58 -75 63 c-42 34 -93 78 -115 97 l-39 35 62 69 c89 98 135 114 214 76z
m-358 -471 c59 -50 109 -94 111 -98 2 -6 -755 -910 -807 -964 -16 -16 -22 -13
-128 75 -62 51 -111 96 -110 101 2 7 819 977 823 977 2 0 51 -41 111 -91z
m-999 -1229 c50 -41 91 -77 91 -80 1 -3 -16 -24 -37 -48 -31 -36 -61 -53 -186
-107 -82 -36 -150 -64 -152 -63 -1 2 16 75 37 162 34 138 44 165 75 203 41 50
22 58 172 -67z"/>
<path d="M678 4199 c-43 -22 -78 -81 -78 -129 0 -50 35 -107 80 -130 38 -20
57 -20 820 -20 763 0 782 0 820 20 45 23 80 80 80 130 0 50 -35 107 -80 130
-38 20 -57 20 -822 20 -760 -1 -784 -1 -820 -21z"/>
<path d="M678 3289 c-43 -22 -78 -81 -78 -129 0 -50 35 -107 80 -130 39 -20
56 -20 1270 -20 1214 0 1231 0 1270 20 45 23 80 80 80 130 0 50 -35 107 -80
130 -39 20 -56 20 -1272 20 -1208 -1 -1234 -1 -1270 -21z"/>
<path d="M678 2389 c-43 -22 -78 -81 -78 -129 0 -50 35 -107 80 -130 39 -20
56 -20 1270 -20 1214 0 1231 0 1270 20 45 23 80 80 80 130 0 50 -35 107 -80
130 -39 20 -56 20 -1272 20 -1208 -1 -1234 -1 -1270 -21z"/>
<path d="M678 1489 c-43 -22 -78 -81 -78 -129 0 -50 35 -107 80 -130 38 -20
57 -20 820 -20 763 0 782 0 820 20 45 23 80 80 80 130 0 50 -35 107 -80 130
-38 20 -57 20 -822 20 -760 -1 -784 -1 -820 -21z"/>
</g>
</svg>