<?xml version="1.0" encoding="utf-8"?>
<svg version="1.0" xmlns="http://www.w3.org/2000/svg"
 width="24" height="24" viewBox="0 0 512.000000 512.000000"
 preserveAspectRatio="xMidYMid meet">

<g transform="translate(0.000000,512.000000) scale(0.100000,-0.100000)"
fill="#2087da" stroke="none">
<path d="M2365 5114 c-376 -38 -593 -88 -871 -199 -704 -282 -1226 -830 -1414
-1482 -57 -200 -73 -315 -74 -548 0 -157 4 -235 17 -310 59 -337 177 -616 378
-896 97 -134 351 -392 476 -484 l82 -60 3 -566 3 -566 559 339 559 339 126
-18 c154 -22 522 -24 681 -5 347 43 651 134 945 282 601 302 1037 804 1205
1387 59 204 73 314 73 553 0 176 -4 236 -21 330 -81 443 -285 826 -614 1152
-399 395 -935 650 -1539 733 -109 15 -490 28 -574 19z m540 -338 c562 -81
1031 -313 1386 -683 193 -202 329 -420 412 -658 151 -435 123 -895 -80 -1300
-87 -175 -189 -318 -332 -468 -529 -552 -1355 -807 -2164 -668 l-109 19 -366
-220 c-202 -121 -371 -222 -375 -225 -5 -3 -7 161 -6 365 l3 370 -100 67
c-657 446 -973 1172 -812 1870 38 166 118 367 201 505 185 310 510 606 853
778 302 151 571 226 959 266 84 9 425 -3 530 -18z"/>
<path d="M1375 3346 c-67 -29 -105 -106 -91 -181 9 -47 59 -102 104 -115 25
-8 401 -10 1194 -8 1150 3 1157 3 1184 24 53 39 69 71 69 134 0 63 -16 95 -69
134 -27 21 -33 21 -1194 23 -955 2 -1173 0 -1197 -11z"/>
<path d="M1695 2386 c-67 -29 -105 -106 -91 -181 9 -47 59 -102 104 -115 25
-8 305 -10 874 -8 827 3 837 3 864 24 53 39 69 71 69 134 0 63 -16 95 -69 134
-27 21 -36 21 -874 23 -689 2 -853 0 -877 -11z"/>
</g>
</svg>