<svg version="1.0" xmlns="http://www.w3.org/2000/svg"
 width="20" height="20" viewBox="0 0 512.000000 512.000000"
 preserveAspectRatio="xMidYMid meet">
    <g transform="translate(0.000000,512.000000) scale(0.100000,-0.100000)" fill="#1172c6" stroke="none">
        <path d="M3094 4015 c-66 -33 -1345 -1311 -1369 -1367 -19 -48 -19 -128 0
        -176 22 -51 1323 -1354 1381 -1382 24 -12 61 -20 93 -20 154 0 255 158 190
        300 -15 34 -156 182 -592 618 l-572 572 567 568 c433 432 572 578 587 612 83
        183 -105 365 -285 275z"/>
    </g>
</svg>