<svg id="Composant_1_116" data-name="Composant 1 – 116" xmlns="http://www.w3.org/2000/svg" width="110.565" height="41" viewBox="0 0 110.565 41">
  <g id="chart-column" transform="translate(-15 -5.5)">
    <path id="secondary" d="M3.5,0A3.5,3.5,0,0,1,7,3.5v23a3.5,3.5,0,0,1-7,0V3.5A3.5,3.5,0,0,1,3.5,0Z" transform="translate(15 11)" fill="#1172c6"/>
    <path id="secondary-2" data-name="secondary" d="M3.811,0A4.081,4.081,0,0,1,7.623,4.305v11c0,2.378-1.706,0-3.811,0S0,17.686,0,15.308v-11A4.081,4.081,0,0,1,3.811,0Z" transform="translate(38.5 32.377) rotate(90)" fill="#92bbe2"/>
  </g>
  <text id="OGO" transform="translate(25.565)" fill="#fff" font-size="34" font-family="Lato-Medium, Lato" font-weight="500" letter-spacing="0.04em"><tspan x="0" y="34">OGO</tspan></text>
</svg>
